<svg width="30" height="30" viewBox="0 0 30 30" fill="none" xmlns="http://www.w3.org/2000/svg">
<path fill-rule="evenodd" clip-rule="evenodd" d="M8.4 25.615C10.315 26.81 12.5775 27.5 15 27.5C17.4175 27.5 19.6762 26.8125 21.59 25.6213L23.14 27.5988C20.795 29.1175 18 30 15 30C11.9963 30 9.1975 29.115 6.85 27.5925L8.4 25.615ZM30 23.75H22.5C22.5 22.3687 23.6187 21.25 25 21.25H27.5C28.1625 21.25 28.7987 21.5138 29.2675 21.9825C29.7362 22.4513 30 23.0863 30 23.75ZM7.5 23.75H0C0 22.3687 1.11875 21.25 2.5 21.25H5C5.6625 21.25 6.29875 21.5138 6.7675 21.9825C7.23625 22.4513 7.5 23.0863 7.5 23.75ZM26.25 15C27.8025 15 29.0625 16.26 29.0625 17.8125C29.0625 19.365 27.8025 20.625 26.25 20.625C24.6975 20.625 23.4375 19.365 23.4375 17.8125C23.4375 16.26 24.6975 15 26.25 15ZM3.75 15C5.3025 15 6.5625 16.26 6.5625 17.8125C6.5625 19.365 5.3025 20.625 3.75 20.625C2.1975 20.625 0.9375 19.365 0.9375 17.8125C0.9375 16.26 2.1975 15 3.75 15ZM10 0.855V3.54125C6.3275 5.1475 3.57375 8.46875 2.7525 12.4888L0.21 12.485C1.125 7.075 4.94125 2.645 10 0.855ZM20 0.855C25.0588 2.645 28.875 7.075 29.79 12.485L27.2475 12.4888C26.4263 8.46875 23.6725 5.1475 20 3.54125V0.855ZM18.75 8.75H11.25C11.25 7.36875 12.3687 6.25 13.75 6.25H16.25C16.9125 6.25 17.5487 6.51375 18.0175 6.9825C18.4862 7.45125 18.75 8.0875 18.75 8.75ZM15 0C16.5525 0 17.8125 1.26 17.8125 2.8125C17.8125 4.365 16.5525 5.625 15 5.625C13.4475 5.625 12.1875 4.365 12.1875 2.8125C12.1875 1.26 13.4475 0 15 0Z" fill="#04172A"/>
</svg>
