<svg width="30" height="30" viewBox="0 0 30 30" fill="none" xmlns="http://www.w3.org/2000/svg">
<path d="M24.5459 24.5459C22.4476 26.6443 19.8343 27.9059 17.1134 28.3346L17.3468 29.8163C15.7926 30.0612 14.2074 30.0612 12.6532 29.8163L12.8866 28.3346C10.1657 27.9059 7.55245 26.6443 5.45406 24.5459C3.35567 22.4476 2.09407 19.8343 1.66537 17.1134L0.183653 17.3468C-0.0612174 15.7926 -0.0612175 14.2074 0.183652 12.6532L1.66537 12.8866C2.09407 10.1657 3.35567 7.55245 5.45406 5.45406C7.55245 3.35567 10.1657 2.09407 12.8866 1.66537L12.6532 0.183653C14.2074 -0.0612175 15.7926 -0.0612176 17.3468 0.183653L17.1134 1.66537C19.8343 2.09407 22.4476 3.35567 24.5459 5.45406C26.6443 7.55245 27.9059 10.1657 28.3346 12.8866L29.8163 12.6532C30.0612 14.2074 30.0612 15.7926 29.8163 17.3468L28.3346 17.1134C27.9059 19.8343 26.6443 22.4476 24.5459 24.5459Z" stroke="#04172A" stroke-width="3" stroke-dasharray="32 8"/>
</svg>
