<svg width="30" height="16" viewBox="0 0 30 16" fill="none" xmlns="http://www.w3.org/2000/svg">
<path d="M22.4963 15.5H7.5025L7.5 14.7213C7.5 13.1475 7.625 12.2387 9.485 11.8088C11.59 11.3225 13.665 10.8888 12.6663 9.0475C9.70875 3.59375 11.8237 0.5 14.9987 0.5C18.1125 0.5 20.2812 3.47875 17.3312 9.04875C16.3625 10.8787 18.3638 11.3138 20.5125 11.81C22.375 12.24 22.4988 13.15 22.4988 14.7263L22.4963 15.5ZM28.51 12.7325C26.8975 12.36 25.3975 12.0337 26.1238 10.6612C28.335 6.48375 26.71 4.25 24.3738 4.25C22.7925 4.25 21.5637 5.27125 21.5637 7.155C21.5637 12.0338 24.3988 9.3675 24.3713 15.5H29.9975L30 14.9213C30 13.7388 29.9075 13.055 28.51 12.7325ZM0.0025 15.5H5.62875C5.6025 9.3675 8.43625 12.035 8.43625 7.155C8.43625 5.27125 7.2075 4.25 5.62625 4.25C3.29 4.25 1.665 6.48375 3.8775 10.6612C4.60375 12.035 3.10375 12.36 1.49125 12.7325C0.0925 13.055 0 13.7388 0 14.9213L0.0025 15.5Z" fill="#04172A"/>
</svg>
