<svg width="33" height="27" viewBox="0 0 33 27" fill="none" xmlns="http://www.w3.org/2000/svg">
<path d="M16.5105 18.225C7.32915 18.225 2.51505 16.5767 0 14.7191V27H32.4V14.9188C28.0557 17.9172 19.6803 18.225 16.5105 18.225ZM18.9 21.6432C18.9 23.1106 17.6904 24.3 16.2 24.3C14.7096 24.3 13.5 23.1106 13.5 21.6432V20.25H18.9V21.6432ZM0 10.1129V6.75H32.4V10.2667C32.4 17.4069 0 17.1963 0 10.1129ZM12.15 0C10.6596 0 9.45 1.2096 9.45 2.7V5.4H12.15V3.375C12.15 3.0024 12.4524 2.7 12.825 2.7H19.575C19.9476 2.7 20.25 3.0024 20.25 3.375V5.4H22.95V2.7C22.95 1.2096 21.7404 0 20.25 0H12.15Z" fill="#4D49FF"/>
</svg>
