<svg width="30" height="30" viewBox="0 0 30 30" fill="none" xmlns="http://www.w3.org/2000/svg">
<g clip-path="url(#clip0)">
<path d="M14.9999 7.82861C11.0458 7.82861 7.82861 11.0458 7.82861 14.9999C7.82861 18.9541 11.0458 22.1713 14.9999 22.1713C18.9541 22.1713 22.1713 18.9541 22.1713 14.9999C22.1713 11.0458 18.9541 7.82861 14.9999 7.82861ZM14.9999 20.3784C12.0343 20.3784 9.62144 17.9656 9.62144 14.9999C9.62144 12.0343 12.0343 9.62144 14.9999 9.62144C17.9656 9.62144 20.3784 12.0343 20.3784 14.9999C20.3784 17.9656 17.9656 20.3784 14.9999 20.3784Z" fill="#04172A"/>
<path d="M29.2941 11.5842L26.9884 11.0829C26.7879 10.4691 26.5395 9.8703 26.2463 9.29352L27.5228 7.30797C27.7508 6.9532 27.7007 6.48743 27.4026 6.18942L23.8106 2.59735C23.5126 2.29935 23.0468 2.24922 22.692 2.47719L20.7065 3.75366C20.1297 3.46046 19.5309 3.21213 18.9171 3.01163L18.4158 0.705872C18.3263 0.293884 17.9615 0 17.5399 0H12.4601C12.0385 0 11.6737 0.293884 11.5842 0.705872L11.0829 3.01163C10.4691 3.21213 9.8703 3.46046 9.29352 3.75366L7.30797 2.47719C6.9532 2.24922 6.48743 2.29935 6.18942 2.59735L2.59735 6.18942C2.29935 6.48743 2.24922 6.9532 2.47719 7.30797L3.75366 9.29352C3.46046 9.8703 3.21213 10.4691 3.01163 11.0829L0.705872 11.5842C0.293884 11.6739 0 12.0385 0 12.4601V17.5399C0 17.9615 0.293884 18.3261 0.705872 18.4158L3.01163 18.9171C3.21213 19.5309 3.46046 20.1297 3.75366 20.7065L2.47719 22.692C2.24922 23.0468 2.29935 23.5126 2.59735 23.8106L6.18942 27.4026C6.48743 27.7007 6.9532 27.7508 7.30797 27.5228L9.29352 26.2463C9.8703 26.5395 10.4691 26.7879 11.0829 26.9884L11.5842 29.2941C11.6737 29.7061 12.0385 30 12.4601 30H17.5399C17.9615 30 18.3263 29.7061 18.4158 29.2941L18.9171 26.9884C19.5309 26.7879 20.1297 26.5395 20.7065 26.2463L22.692 27.5228C23.0468 27.7508 23.5126 27.7009 23.8106 27.4026L27.4026 23.8106C27.7007 23.5126 27.7508 23.0468 27.5228 22.692L26.2463 20.7065C26.5395 20.1297 26.7879 19.5309 26.9884 18.9171L29.2941 18.4158C29.7061 18.3261 30 17.9615 30 17.5399V12.4601C30 12.0385 29.7061 11.6739 29.2941 11.5842ZM28.2072 16.8173L26.093 17.2769C25.7682 17.3476 25.5091 17.5921 25.4198 17.9121C25.1875 18.7454 24.8534 19.5513 24.4267 20.3073C24.2633 20.5968 24.2734 20.953 24.4533 21.2327L25.624 23.0537L23.0539 25.624L21.2327 24.4533C20.953 24.2734 20.5968 24.2633 20.3075 24.4267C19.5513 24.8534 18.7454 25.1875 17.9121 25.4198C17.5921 25.5091 17.3476 25.7682 17.2769 26.093L16.8173 28.2072H13.1827L12.7231 26.093C12.6524 25.7682 12.4079 25.5091 12.0879 25.4198C11.2546 25.1875 10.4487 24.8534 9.69269 24.4267C9.40315 24.2633 9.04701 24.2736 8.76732 24.4533L6.94633 25.624L4.37622 23.0537L5.54672 21.2327C5.72662 20.953 5.73692 20.5968 5.5735 20.3073C5.14687 19.5513 4.8127 18.7454 4.58015 17.9121C4.49089 17.5921 4.23203 17.3476 3.90724 17.2769L1.79283 16.8173V13.1827L3.90701 12.7231C4.2318 12.6524 4.49089 12.4079 4.58015 12.0879C4.81247 11.2546 5.14664 10.4487 5.57327 9.69269C5.73669 9.40315 5.72662 9.04701 5.54672 8.76732L4.37599 6.94633L6.94611 4.37599L8.76732 5.54672C9.04701 5.72662 9.40315 5.73669 9.69246 5.57327C10.4487 5.14664 11.2546 4.81247 12.0879 4.58015C12.4079 4.49089 12.6524 4.2318 12.7231 3.90701L13.1827 1.79283H16.8173L17.2769 3.90701C17.3476 4.2318 17.5921 4.49089 17.9121 4.58015C18.7454 4.81247 19.5513 5.14664 20.3073 5.57327C20.5968 5.73669 20.953 5.72639 21.2327 5.54672L23.0537 4.37599L25.6238 6.94633L24.4533 8.76732C24.2734 9.04701 24.2631 9.40315 24.4265 9.69269C24.8534 10.4487 25.1873 11.2546 25.4198 12.0879C25.5091 12.4079 25.768 12.6524 26.0928 12.7231L28.2072 13.1827V16.8173Z" fill="#04172A"/>
</g>
<defs>
<clipPath id="clip0">
<rect width="30" height="30" fill="white"/>
</clipPath>
</defs>
</svg>
