<svg width="30" height="30" viewBox="0 0 30 30" fill="none" xmlns="http://www.w3.org/2000/svg">
<path d="M15 2.5C21.8925 2.5 27.5 8.1075 27.5 15C27.5 21.8925 21.8925 27.5 15 27.5C8.1075 27.5 2.5 21.8925 2.5 15C2.5 8.1075 8.1075 2.5 15 2.5ZM15 0C6.71625 0 0 6.71625 0 15C0 23.2838 6.71625 30 15 30C23.2838 30 30 23.2838 30 15C30 6.71625 23.2838 0 15 0ZM16.5625 21.25C16.5625 22.1125 15.8638 22.8125 15 22.8125C14.1388 22.8125 13.4375 22.1125 13.4375 21.25C13.4375 20.3875 14.1388 19.6875 15 19.6875C15.8638 19.6875 16.5625 20.3875 16.5625 21.25ZM18.3037 8.7525C17.5437 7.9825 16.41 7.55875 15.115 7.55875C12.39 7.55875 10.6275 9.49625 10.6275 12.4963H13.1412C13.1412 10.6388 14.1775 9.98 15.0637 9.98C15.8562 9.98 16.6975 10.5063 16.7687 11.5125C16.8463 12.5712 16.2812 13.1088 15.5662 13.7887C13.8013 15.4675 13.7688 16.28 13.7762 18.1237H16.2825C16.2663 17.2937 16.32 16.62 17.4513 15.4012C18.2975 14.4888 19.35 13.3537 19.3713 11.6237C19.385 10.4688 19.0162 9.475 18.3037 8.7525Z" fill="#04172A"/>
</svg>
