<svg width="24" height="24" viewBox="0 0 24 24" fill="none" xmlns="http://www.w3.org/2000/svg">
<path d="M12.0002 5.9911C8.67497 5.9911 5.99138 8.6747 5.99138 11.9999C5.99138 15.3251 8.67497 18.0087 12.0002 18.0087C15.3254 18.0087 18.009 15.3251 18.009 11.9999C18.009 8.6747 15.3254 5.9911 12.0002 5.9911ZM12.0002 15.9052C9.84978 15.9052 8.0949 14.1503 8.0949 11.9999C8.0949 9.8495 9.84978 8.09462 12.0002 8.09462C14.1506 8.09462 15.9054 9.8495 15.9054 11.9999C15.9054 14.1503 14.1506 15.9052 12.0002 15.9052ZM18.2551 4.34462C17.4787 4.34462 16.8517 4.97157 16.8517 5.74794C16.8517 6.52431 17.4787 7.15126 18.2551 7.15126C19.0314 7.15126 19.6584 6.52724 19.6584 5.74794C19.6586 5.56359 19.6225 5.381 19.552 5.21064C19.4816 5.04028 19.3782 4.88548 19.2479 4.75513C19.1175 4.62477 18.9627 4.52141 18.7924 4.45097C18.622 4.38053 18.4394 4.34439 18.2551 4.34462ZM23.7131 11.9999C23.7131 10.3827 23.7277 8.78017 23.6369 7.16591C23.5461 5.29091 23.1183 3.62685 21.7472 2.25575C20.3732 0.88173 18.7121 0.456926 16.8371 0.366106C15.2199 0.275285 13.6174 0.289934 12.0031 0.289934C10.3859 0.289934 8.78337 0.275285 7.16912 0.366106C5.29412 0.456926 3.63005 0.88466 2.25896 2.25575C0.884935 3.62978 0.46013 5.29091 0.36931 7.16591C0.27849 8.7831 0.293138 10.3856 0.293138 11.9999C0.293138 13.6142 0.27849 15.2196 0.36931 16.8339C0.46013 18.7089 0.887865 20.3729 2.25896 21.744C3.63298 23.1181 5.29412 23.5429 7.16912 23.6337C8.7863 23.7245 10.3888 23.7099 12.0031 23.7099C13.6203 23.7099 15.2228 23.7245 16.8371 23.6337C18.7121 23.5429 20.3761 23.1151 21.7472 21.744C23.1213 20.37 23.5461 18.7089 23.6369 16.8339C23.7306 15.2196 23.7131 13.6171 23.7131 11.9999ZM21.1349 18.9081C20.9211 19.4413 20.6633 19.8397 20.2502 20.2499C19.8371 20.663 19.4416 20.9208 18.9084 21.1347C17.3674 21.747 13.7082 21.6093 12.0002 21.6093C10.2922 21.6093 6.63005 21.747 5.08904 21.1376C4.55583 20.9237 4.1574 20.6659 3.74724 20.2528C3.33415 19.8397 3.07634 19.4442 2.86247 18.911C2.2531 17.3671 2.39079 13.7079 2.39079 11.9999C2.39079 10.2919 2.2531 6.62978 2.86247 5.08876C3.07634 4.55556 3.33415 4.15712 3.74724 3.74696C4.16033 3.33681 4.55583 3.07607 5.08904 2.8622C6.63005 2.25282 10.2922 2.39052 12.0002 2.39052C13.7082 2.39052 17.3703 2.25282 18.9113 2.8622C19.4445 3.07607 19.8429 3.33388 20.2531 3.74696C20.6662 4.16005 20.924 4.55556 21.1379 5.08876C21.7472 6.62978 21.6095 10.2919 21.6095 11.9999C21.6095 13.7079 21.7472 17.3671 21.1349 18.9081Z" fill="white"/>
</svg>
