<svg width="25" height="20" viewBox="0 0 25 20" fill="none" xmlns="http://www.w3.org/2000/svg">
<path d="M24.3779 2.45021C23.4814 2.83693 22.5059 3.11525 21.501 3.22365C22.5443 2.60383 23.3256 1.62462 23.6982 0.469739C22.7192 1.05213 21.6467 1.46051 20.5283 1.67677C20.0609 1.17704 19.4955 0.778937 18.8675 0.507261C18.2395 0.235584 17.5622 0.0961569 16.8779 0.0976684C14.1094 0.0976684 11.8828 2.34181 11.8828 5.09572C11.8828 5.48243 11.9297 5.86915 12.0059 6.24122C7.86035 6.02443 4.16309 4.04396 1.70508 1.01173C1.2572 1.77672 1.0225 2.64774 1.02539 3.53419C1.02539 5.26857 1.90723 6.79786 3.25195 7.69728C2.45949 7.66607 1.68557 7.44825 0.993164 7.06154V7.12306C0.993164 9.55177 2.70996 11.5645 4.99805 12.0274C4.56843 12.139 4.12649 12.196 3.68262 12.1973C3.35742 12.1973 3.0498 12.1651 2.73926 12.1211C3.37207 14.1016 5.21484 15.5401 7.40918 15.5869C5.69238 16.9317 3.54199 17.7227 1.20703 17.7227C0.788086 17.7227 0.401367 17.708 0 17.6611C2.21484 19.082 4.84277 19.9024 7.67285 19.9024C16.8604 19.9024 21.8877 12.291 21.8877 5.68458C21.8877 5.46779 21.8877 5.25099 21.873 5.03419C22.8457 4.32228 23.6982 3.44044 24.3779 2.45021Z" fill="white"/>
</svg>
