<svg width="20" height="20" viewBox="0 0 20 20" fill="none" xmlns="http://www.w3.org/2000/svg">
<path fill-rule="evenodd" clip-rule="evenodd" d="M11.3429 4.54368L12.7679 5.94702L6.44974 12.3628C6.1327 12.6863 6.1327 13.2071 6.44974 13.5307C6.75058 13.8378 7.25315 13.8364 7.55079 13.529L14.5022 6.46741C15.517 5.43179 15.517 3.76857 14.5022 2.73294C13.5339 1.74484 11.8208 1.76682 10.8718 2.73482L3.28454 10.437C1.57154 12.1844 1.57154 14.9904 3.28454 16.7378C4.94795 18.4346 7.80544 18.407 9.44287 16.7362L18.2919 7.74899L19.717 9.1522L10.8696 18.1378C8.45572 20.6008 4.31008 20.6409 1.85633 18.1379C-0.619061 15.6127 -0.619061 11.562 1.85804 9.03517L9.44533 1.33301C11.1687 -0.425057 14.1701 -0.463563 15.9307 1.33316C17.7075 3.14642 17.7075 6.05393 15.9291 7.86883L8.98186 14.9262C7.90719 16.0361 6.10934 16.0411 5.02113 14.9304C3.94224 13.8292 3.94224 12.0643 5.02293 10.9612L11.3429 4.54368Z" fill="#04172A"/>
</svg>
