<svg width="5" height="18" viewBox="0 0 5 18" fill="none" xmlns="http://www.w3.org/2000/svg">
<path d="M0.717285 2C0.717285 3.10457 1.61272 4 2.71729 4C3.82185 4 4.71729 3.10457 4.71729 2C4.71729 0.89543 3.82185 0 2.71729 0C1.61272 0 0.717285 0.89543 0.717285 2Z" fill="#04172A"/>
<path d="M2.71729 11C1.61272 11 0.717285 10.1046 0.717285 9C0.717285 7.89543 1.61272 7 2.71729 7C3.82185 7 4.71729 7.89543 4.71729 9C4.71729 10.1046 3.82185 11 2.71729 11Z" fill="#04172A"/>
<path d="M2.71729 18C1.61272 18 0.717285 17.1046 0.717285 16C0.717285 14.8954 1.61272 14 2.71729 14C3.82185 14 4.71729 14.8954 4.71729 16C4.71729 17.1046 3.82185 18 2.71729 18Z" fill="#04172A"/>
</svg>
