<svg width="16" height="16" viewBox="0 0 16 16" fill="none" xmlns="http://www.w3.org/2000/svg">
<path d="M3.48346 6.99525L1.59696 8.88175C0.823305 9.6554 0.388672 10.7047 0.388672 11.7988C0.388672 12.8929 0.823305 13.9422 1.59696 14.7159C2.37061 15.4895 3.41991 15.9242 4.51402 15.9242C5.60813 15.9242 6.65743 15.4895 7.43108 14.7159L9.94458 12.201C10.4111 11.7344 10.7589 11.1627 10.9588 10.5339C11.1586 9.90505 11.2047 9.23746 11.0932 8.58714C10.9817 7.93681 10.7158 7.32273 10.3178 6.79643C9.91984 6.27014 9.40143 5.84699 8.80609 5.5625L8.00033 6.36825C7.91852 6.45019 7.84738 6.54212 7.78858 6.64187C8.24856 6.77411 8.66606 7.0241 8.99981 7.36713C9.33357 7.71016 9.57201 8.13436 9.69159 8.59779C9.81116 9.06121 9.80771 9.54782 9.68159 10.0095C9.55547 10.4712 9.31104 10.892 8.97246 11.2302L6.46033 13.7437C5.94432 14.2598 5.24446 14.5497 4.51471 14.5497C3.78496 14.5497 3.0851 14.2598 2.56908 13.7437C2.05307 13.2277 1.76318 12.5279 1.76318 11.7981C1.76318 11.0684 2.05307 10.3685 2.56908 9.8525L3.65946 8.7635C3.50562 8.187 3.44618 7.58938 3.48346 6.99387V6.99525Z" fill="#04172A"/>
<path d="M4.85418 7.56984L5.0838 7.34021C5.42446 6.99829 5.8495 6.75256 6.3158 6.62796C6.4404 6.16166 6.68613 5.73662 7.02805 5.39596L7.25768 5.16633C6.566 5.12745 5.87566 5.26315 5.25018 5.56096C4.94768 6.19346 4.81568 6.88509 4.85418 7.56846V7.56984Z" fill="#04172A"/>
<path d="M6.05563 4.42372C5.5891 4.89032 5.24131 5.46202 5.04145 6.09084C4.84158 6.71967 4.79548 7.38726 4.90701 8.03759C5.01854 8.68791 5.28445 9.30199 5.68242 9.82829C6.08038 10.3546 6.59879 10.7777 7.19413 11.0622L8.25976 9.99522C7.79356 9.87017 7.36849 9.62462 7.02726 9.28325C6.68602 8.94187 6.44065 8.5167 6.3158 8.05045C6.19095 7.5842 6.19101 7.0933 6.31598 6.62709C6.44096 6.16087 6.68644 5.73576 7.02776 5.39447L9.53988 2.88097C10.0559 2.36496 10.7558 2.07507 11.4855 2.07507C12.2153 2.07507 12.9151 2.36496 13.4311 2.88097C13.9471 3.39698 14.237 4.09685 14.237 4.8266C14.237 5.55635 13.9471 6.25621 13.4311 6.77222L12.3408 7.86122C12.4948 8.43872 12.5539 9.03685 12.5168 9.63085L14.4033 7.74435C15.1769 6.97069 15.6115 5.92139 15.6115 4.82728C15.6115 3.73317 15.1769 2.68387 14.4033 1.91022C13.6296 1.13657 12.5803 0.701935 11.4862 0.701935C10.3921 0.701935 9.34279 1.13657 8.56913 1.91022L6.05563 4.42372Z" fill="#04172A"/>
<path d="M10.7497 11.0625C11.0488 10.4374 11.185 9.74687 11.1457 9.05502L10.9161 9.28465C10.5754 9.62657 10.1504 9.8723 9.68406 9.9969C9.55946 10.4632 9.31373 10.8882 8.97181 11.2289L8.74219 11.4585C9.43386 11.4974 10.1242 11.3617 10.7497 11.0639V11.0625Z" fill="#04172A"/>
</svg>
