<svg width="67" height="50" viewBox="0 0 67 50" fill="none" xmlns="http://www.w3.org/2000/svg">
<path d="M39.6568 22.6915L43.2407 18.9951L39.5852 15.2187L36.0099 18.9239C34.5105 17.8687 32.7989 17.1365 30.9582 16.7659V11.5281H25.8033V16.7688C23.9568 17.1364 22.2538 17.8655 20.7601 18.9238L17.1764 15.2186L13.5295 18.995L17.1018 22.6913C16.0956 24.2417 15.3874 25.9994 15.0289 27.9143H9.95435V33.241H15.0289C15.3873 35.1439 16.0926 36.9047 17.1018 38.455L13.5295 42.1602L17.1735 45.9306L20.7572 42.2313C22.2509 43.2807 23.9568 44.0128 25.8033 44.3833V49.627H30.9611V44.3833C32.8017 44.0187 34.5076 43.2895 36.0129 42.2373L39.5881 45.9306L43.2436 42.1602L39.6599 38.455C40.6748 36.9107 41.3859 35.1439 41.7299 33.241H46.8102V27.9143H41.7269C41.3799 25.9995 40.6747 24.2418 39.6568 22.6915ZM28.3779 36.4009C25.2729 36.4009 22.7528 33.7835 22.7528 30.5674C22.7528 27.3601 25.2729 24.7487 28.3779 24.7487C31.4916 24.7487 34.0145 27.3602 34.0145 30.5674C34.0173 33.7835 31.4943 36.4009 28.3779 36.4009Z" fill="#4D49FF"/>
<path d="M44.6685 4.75469C40.1472 1.76377 34.8001 0 29.0403 0C13.002 0.000138 0 13.44 0 30.0219C0 36.9522 2.29368 43.3046 6.10111 48.3912L9.74799 44.6237C6.84649 40.5301 5.08047 35.5236 5.08047 30.0456C5.08047 16.3658 15.806 5.28251 29.0374 5.28251C33.4383 5.28251 37.498 6.59568 41.0445 8.75961L38.2463 11.8425L49.6198 12.9096L48.3985 0.631716L44.6685 4.75469Z" fill="#4D49FF"/>
<path d="M66.8107 30.653L59.6861 23.29V27.4132H50.308V33.8929H59.6861V38.0251L66.8107 30.653Z" fill="#4D49FF"/>
</svg>
