<svg width="1057" height="98" viewBox="0 0 1057 98" fill="none" xmlns="http://www.w3.org/2000/svg">
<rect x="6" y="4" width="1040" height="88" rx="10" fill="#4D49FF"/>
<mask id="mask0" mask-type="alpha" maskUnits="userSpaceOnUse" x="6" y="4" width="1040" height="88">
<rect x="6" y="4" width="1040" height="88" rx="10" fill="#4D49FF"/>
</mask>
<g mask="url(#mask0)">
<path d="M14.1555 -19.0837C-123.89 -76.4729 -201.976 -22.8915 -217.315 -12.2841C-263.433 19.6098 -196.621 62.3416 -161.106 108.891C-159.151 111.453 -156.142 113.014 -152.919 113.014H-61.1421C378.094 119.27 1181.63 166.59 1191.03 127.245C1218.92 10.563 1042.53 46.193 993.722 54.2646C951.998 61.1651 810.358 76.5675 671.615 30.6018C532.872 -15.3639 300.705 23.5301 249.112 30.6018C197.519 37.6734 152.201 38.3054 14.1555 -19.0837Z" fill="#413DF3" fill-opacity="0.53"/>
<path d="M-221.87 -36.2717C-231.84 -29.3931 -236.963 -23.7203 -239.032 -20.6212C-239.757 -19.5367 -240 -18.2316 -240 -16.9273V139.089C-240 144.612 -235.523 149.089 -230 149.089H-143.076C296.22 155.331 1163.93 158.914 1120.42 123.307C1066.03 78.7988 985.148 74.6321 939.824 74.6321C894.499 74.6321 756.435 96.8863 617.673 51.021C478.911 5.15561 218.82 59.8013 167.22 66.8575C115.621 73.9137 43.7992 72.8281 -10.5899 -1.26208C-64.9789 -75.3523 -206.53 -46.8561 -221.87 -36.2717Z" fill="#3632E8" fill-opacity="0.58"/>
</g>
<mask id="mask1" mask-type="alpha" maskUnits="userSpaceOnUse" x="6" y="4" width="1040" height="88">
<rect x="6" y="4" width="1040" height="88" rx="10" fill="#4D49FF"/>
</mask>
<g mask="url(#mask1)">
<path d="M14.1555 -19.0837C-123.89 -76.4729 -201.976 -22.8915 -217.315 -12.2841C-263.433 19.6098 -196.621 62.3416 -161.106 108.891C-159.151 111.453 -156.142 113.014 -152.919 113.014H-61.1421C378.094 119.27 1181.63 166.59 1191.03 127.245C1218.92 10.563 1042.53 46.193 993.722 54.2646C951.998 61.1651 810.358 76.5675 671.615 30.6018C532.872 -15.3639 300.705 23.5301 249.112 30.6018C197.519 37.6734 152.201 38.3054 14.1555 -19.0837Z" fill="#413DF3" fill-opacity="0.53"/>
<path d="M-221.87 -36.2717C-231.84 -29.3931 -236.963 -23.7203 -239.032 -20.6212C-239.757 -19.5367 -240 -18.2316 -240 -16.9273V139.089C-240 144.612 -235.523 149.089 -230 149.089H-143.076C296.22 155.331 1163.93 158.914 1120.42 123.307C1066.03 78.7988 985.148 74.6321 939.824 74.6321C894.499 74.6321 756.435 96.8863 617.673 51.021C478.911 5.15561 218.82 59.8013 167.22 66.8575C115.621 73.9137 43.7992 72.8281 -10.5899 -1.26208C-64.9789 -75.3523 -206.53 -46.8561 -221.87 -36.2717Z" fill="#3632E8" fill-opacity="0.58"/>
</g>
</svg>
