<svg width="71" height="50" viewBox="0 0 71 50" fill="none" xmlns="http://www.w3.org/2000/svg">
<path d="M69.444 33.4729C65.5162 30.1436 61.2852 27.934 60.4332 27.501C60.3321 27.4562 60.2743 27.3517 60.2743 27.2323V20.9169C61.0397 20.3944 61.5451 19.4837 61.5451 18.4535V11.8993C61.5451 8.64453 58.9892 6.00195 55.8411 6.00195H55.1624H54.4837C51.3357 6.00195 48.7798 8.64453 48.7798 11.8993V18.4535C48.7798 19.4837 49.2852 20.3795 50.0505 20.9169V27.2323C50.0505 27.2771 50.0361 27.3069 50.0361 27.3368C51.2347 28.1878 52.491 29.1433 53.7184 30.1884C55.148 31.4126 55.9711 33.2042 55.9711 35.1451V40.4153H70.5559V35.9214C70.5559 34.9809 70.1516 34.0851 69.444 33.4729Z" fill="#4D49FF"/>
<path d="M20.5054 27.2323V20.9169C21.2707 20.3944 21.7761 19.4837 21.7761 18.4535V11.8993C21.7761 8.64453 19.2202 6.00195 16.0722 6.00195H15.3935H14.7148C11.5668 6.00195 9.01081 8.64453 9.01081 11.8993V18.4535C9.01081 19.4837 9.51622 20.3795 10.2816 20.9169V27.2323C10.2816 27.3368 10.2238 27.4413 10.1227 27.501C9.2563 27.934 5.02526 30.1436 1.11191 33.4729C0.404331 34.0701 0 34.9809 0 35.9214V40.4153H14.5848V35.1451C14.5848 33.2191 15.4079 31.4126 16.8375 30.1884C18.0649 29.1433 19.3213 28.1878 20.5198 27.3368C20.5198 27.3069 20.5054 27.2771 20.5054 27.2323Z" fill="#4D49FF"/>
<path d="M52.0578 32.2636C47.4513 28.352 42.4838 25.7542 41.4585 25.2316C41.343 25.1719 41.2708 25.0524 41.2708 24.9181V17.4979C42.1661 16.8709 42.7726 15.8108 42.7726 14.6164V6.92749C42.7726 3.10543 39.769 0 36.0722 0H35.278H34.4838C30.787 0 27.7834 3.10543 27.7834 6.92749V14.6164C27.7834 15.8258 28.3755 16.8858 29.2852 17.4979V24.9181C29.2852 25.0524 29.213 25.1719 29.0975 25.2316C28.0867 25.7392 23.1191 28.337 18.4982 32.2636C17.6606 32.9653 17.1841 34.0253 17.1841 35.1451V40.4153H24.0145V39.8181C24.0145 38.2803 25.0686 36.9964 26.4693 36.6978C26.4838 36.6679 26.4982 36.6381 26.5127 36.6082C26.1805 36.1006 26.0072 35.4885 26.0072 34.8614C26.0072 34.0104 26.3249 33.2191 26.9025 32.607L27.7256 31.756C28.3033 31.1588 29.0831 30.8303 29.9062 30.8303C30.5271 30.8303 31.1192 31.0244 31.6101 31.3678C31.639 31.3529 31.6535 31.3529 31.6823 31.3379C31.9567 29.8748 33.1986 28.77 34.7004 28.77H35.8701C37.3719 28.77 38.6138 29.8748 38.8881 31.3379C38.9026 31.3529 38.917 31.3529 38.9459 31.3678C39.4513 31.0095 40.0434 30.8154 40.6787 30.8154C41.5019 30.8154 42.2672 31.1439 42.8448 31.741L43.6679 32.5921C44.7221 33.6819 44.852 35.3839 44.0434 36.6231C44.0578 36.6381 44.0578 36.653 44.0723 36.6828C45.4874 36.9665 46.5704 38.2505 46.5704 39.8032V40.4153H53.4008V35.1451C53.3719 34.0253 52.8954 32.9653 52.0578 32.2636Z" fill="#4D49FF"/>
<path d="M43.4657 39.0119H42.3105C42.1228 38.0265 41.7617 37.0859 41.1841 36.2349L42.0072 35.3839C42.296 35.0853 42.296 34.5777 42.0072 34.2791L41.1841 33.4281C40.8953 33.1295 40.4043 33.1295 40.1155 33.4281L39.2924 34.2791C38.4693 33.6968 37.5451 33.3086 36.6065 33.1295V31.9351C36.6065 31.5021 36.2744 31.1587 35.8556 31.1587H34.6859C34.2672 31.1587 33.935 31.5021 33.935 31.9351V33.1146C32.982 33.2937 32.0578 33.6819 31.2347 34.2642L30.426 33.4281C30.1372 33.1295 29.6462 33.1295 29.3574 33.4281L28.5343 34.2791C28.2455 34.5777 28.2455 35.0853 28.5343 35.3839L29.3285 36.205C28.7654 37.071 28.3755 38.0265 28.2022 39.0119H27.0903C26.6715 39.0119 26.3394 39.3552 26.3394 39.7882V40.9975C26.3394 41.4305 26.6715 41.7739 27.0903 41.7739H28.2022C28.3755 42.7593 28.7509 43.7297 29.3285 44.5807L28.5487 45.3869C28.2599 45.6855 28.2599 46.1931 28.5487 46.4917L29.3718 47.3427C29.6607 47.6413 30.1516 47.6413 30.4404 47.3427L31.2202 46.5365C32.0578 47.1188 32.982 47.507 33.9495 47.701V48.8506C33.9495 49.2836 34.2816 49.627 34.7004 49.627H35.87C36.2888 49.627 36.6209 49.2836 36.6209 48.8506V47.701C37.574 47.507 38.4982 47.1188 39.3213 46.5365L40.1155 47.3577C40.4043 47.6563 40.8953 47.6563 41.1841 47.3577L42.0072 46.5067C42.296 46.2081 42.296 45.7004 42.0072 45.4018L41.1986 44.5658C41.7617 43.6998 42.1228 42.7593 42.3105 41.7739H43.4513C43.87 41.7739 44.2022 41.4305 44.2022 40.9975V39.7882C44.2311 39.3702 43.8845 39.0119 43.4657 39.0119ZM38.0361 43.2519C36.5199 44.8196 34.0505 44.8345 32.5199 43.2519C31.0036 41.6843 30.9892 39.1313 32.5199 37.5487C34.0361 35.9811 36.5054 35.9662 38.0361 37.5487C39.5524 39.1313 39.5524 41.6843 38.0361 43.2519Z" fill="#4D49FF"/>
</svg>
