<svg width="26" height="29" viewBox="0 0 26 29" fill="none" xmlns="http://www.w3.org/2000/svg">
<path fill-rule="evenodd" clip-rule="evenodd" d="M12.292 1.2919C12.3849 1.19877 12.4952 1.12488 12.6167 1.07447C12.7382 1.02406 12.8685 0.998108 13 0.998108C13.1315 0.998108 13.2618 1.02406 13.3833 1.07447C13.5048 1.12488 13.6151 1.19877 13.708 1.2919L25.708 13.2919C25.8008 13.3849 25.8744 13.4953 25.9245 13.6168C25.9746 13.7383 26.0002 13.8685 26 13.9999V27.9999C26 28.2651 25.8946 28.5195 25.7071 28.707C25.5196 28.8945 25.2652 28.9999 25 28.9999H16C15.7348 28.9999 15.4804 28.8945 15.2929 28.707C15.1054 28.5195 15 28.2651 15 27.9999V19.9999H11V27.9999C11 28.2651 10.8946 28.5195 10.7071 28.707C10.5196 28.8945 10.2652 28.9999 10 28.9999H1C0.734785 28.9999 0.480431 28.8945 0.292895 28.707C0.105358 28.5195 1.59499e-06 28.2651 1.59499e-06 27.9999V13.9999C-0.000233099 13.8685 0.0254349 13.7383 0.0755383 13.6168C0.125642 13.4953 0.199198 13.3849 0.292002 13.2919L12.292 1.2919ZM2 14.4139V26.9999H9V18.9999C9 18.7347 9.10536 18.4803 9.2929 18.2928C9.48043 18.1052 9.73479 17.9999 10 17.9999H16C16.2652 17.9999 16.5196 18.1052 16.7071 18.2928C16.8946 18.4803 17 18.7347 17 18.9999V26.9999H24V14.4139L13 3.4139L2 14.4139Z" fill="#2D2D2D"/>
</svg>
