<svg width="28" height="26" viewBox="0 0 28 26" fill="none" xmlns="http://www.w3.org/2000/svg">
<path d="M27.53 4.15C27.378 4.06223 27.2055 4.01603 27.03 4.01603C26.8545 4.01603 26.682 4.06223 26.53 4.15L18 8.38V5C17.9995 4.82954 17.9554 4.66203 17.8719 4.5134C17.7885 4.36477 17.6684 4.23994 17.5231 4.15076C17.3778 4.06159 17.2122 4.01104 17.0419 4.0039C16.8715 3.99677 16.7022 4.03329 16.55 4.11L8 8.38V1C8 0.734784 7.89464 0.48043 7.70711 0.292893C7.51957 0.105357 7.26522 0 7 0H1C0.734784 0 0.48043 0.105357 0.292893 0.292893C0.105357 0.48043 0 0.734784 0 1V26H28V5C28.0003 4.83006 27.9574 4.66283 27.8751 4.51411C27.7929 4.36538 27.6741 4.24007 27.53 4.15ZM20 24H16V17H20V24ZM26 24H22V16C22 15.7348 21.8946 15.4804 21.7071 15.2929C21.5196 15.1054 21.2652 15 21 15H15C14.7348 15 14.4804 15.1054 14.2929 15.2929C14.1054 15.4804 14 15.7348 14 16V24H2V2H6V11.62L16 6.62V11.62L26 6.62V24Z" fill="#2D2D2D"/>
</svg>
