<svg width="14" height="15" viewBox="0 0 14 15" fill="none" xmlns="http://www.w3.org/2000/svg">
<path d="M2.8945 6.1775L1.1795 7.8925C0.476176 8.59582 0.0810547 9.54973 0.0810547 10.5444C0.0810547 11.539 0.476176 12.4929 1.1795 13.1962C1.88282 13.8996 2.83673 14.2947 3.83137 14.2947C4.82602 14.2947 5.77993 13.8996 6.48325 13.1962L8.76825 10.91C9.19237 10.4858 9.50854 9.96609 9.69024 9.39443C9.87193 8.82278 9.91384 8.21587 9.81245 7.62467C9.71106 7.03346 9.46932 6.47521 9.10754 5.99676C8.74575 5.51831 8.27447 5.13362 7.73325 4.875L7.00075 5.6075C6.92637 5.68199 6.8617 5.76557 6.80825 5.85625C7.22641 5.97646 7.60595 6.20372 7.90936 6.51557C8.21278 6.82742 8.42955 7.21305 8.53825 7.63435C8.64695 8.05565 8.64382 8.49802 8.52916 8.91774C8.41451 9.33745 8.19229 9.71998 7.8845 10.0275L5.60075 12.3125C5.13165 12.7816 4.49541 13.0451 3.832 13.0451C3.16859 13.0451 2.53235 12.7816 2.06325 12.3125C1.59415 11.8434 1.33061 11.2072 1.33061 10.5437C1.33061 9.88034 1.59415 9.2441 2.06325 8.775L3.0545 7.785C2.91464 7.26091 2.86061 6.71762 2.8945 6.17625V6.1775Z" fill="#4D49FF"/>
<path d="M4.14069 6.69986L4.34944 6.49111C4.65914 6.18028 5.04554 5.95689 5.46944 5.84361C5.58272 5.41971 5.80611 5.03331 6.11694 4.72361L6.32569 4.51486C5.6969 4.47951 5.06932 4.60288 4.50069 4.87361C4.22569 5.44861 4.10569 6.07736 4.14069 6.69861V6.69986Z" fill="#4D49FF"/>
<path d="M5.23293 3.83974C4.80881 4.26392 4.49263 4.78365 4.31094 5.35531C4.12925 5.92696 4.08733 6.53387 4.18873 7.12507C4.29012 7.71628 4.53185 8.27453 4.89364 8.75298C5.25543 9.23143 5.72671 9.61612 6.26793 9.87474L7.23668 8.90474C6.81286 8.79106 6.42643 8.56783 6.11622 8.25749C5.80601 7.94715 5.58294 7.56063 5.46944 7.13677C5.35594 6.7129 5.356 6.26663 5.46961 5.8428C5.58322 5.41897 5.80639 5.0325 6.11668 4.72224L8.40043 2.43724C8.86953 1.96814 9.50577 1.7046 10.1692 1.7046C10.8326 1.7046 11.4688 1.96814 11.9379 2.43724C12.407 2.90634 12.6706 3.54258 12.6706 4.20599C12.6706 4.8694 12.407 5.50564 11.9379 5.97474L10.9467 6.96474C11.0867 7.48974 11.1404 8.03349 11.1067 8.57349L12.8217 6.85849C13.525 6.15517 13.9201 5.20126 13.9201 4.20662C13.9201 3.21197 13.525 2.25806 12.8217 1.55474C12.1184 0.851421 11.1644 0.456299 10.1698 0.456299C9.17515 0.456299 8.22125 0.851421 7.51793 1.55474L5.23293 3.83974Z" fill="#4D49FF"/>
<path d="M9.50078 9.87502C9.77267 9.30675 9.8965 8.67897 9.86078 8.05002L9.65203 8.25877C9.34234 8.5696 8.95594 8.79299 8.53203 8.90627C8.41876 9.33018 8.19537 9.71658 7.88453 10.0263L7.67578 10.235C8.30457 10.2704 8.93216 10.147 9.50078 9.87627V9.87502Z" fill="#4D49FF"/>
</svg>
