<svg width="53" height="50" viewBox="0 0 53 50" fill="none" xmlns="http://www.w3.org/2000/svg">
<path d="M26.2502 32.4592C25.6142 32.4592 25.0991 32.9923 25.0991 33.6499C25.0991 34.3074 25.6143 34.8408 26.2502 34.8408C26.8864 34.8408 27.402 34.3074 27.402 33.6499C27.402 32.9923 26.8864 32.4592 26.2502 32.4592Z" fill="#4D49FF"/>
<path d="M51.4293 0H1.07144C0.479685 0 0 0.495944 0 1.10776V37.382C0 37.9938 0.479685 38.4898 1.07144 38.4898H19.7907L17.9166 43.19H14.3937C13.802 43.19 13.3222 43.6861 13.3222 44.2978V48.5192C13.3222 49.1311 13.802 49.627 14.3937 49.627H38.1072C38.6988 49.627 39.1786 49.1311 39.1786 48.5192V44.2978C39.1786 43.6861 38.6988 43.19 38.1072 43.19H34.5844L32.7101 38.4898H51.4293C52.0209 38.4898 52.5007 37.9938 52.5007 37.382V1.10776C52.5007 0.495833 52.0209 0 51.4293 0ZM50.3578 2.21552V28.9016H2.14289V2.21552H50.3578ZM37.0357 47.4115H15.4651V45.4055H37.0357V47.4115ZM32.2664 43.19H20.2344L22.1086 38.4898H30.3921L32.2664 43.19ZM2.14289 36.2743V31.1171H50.3578V36.2743H2.14289Z" fill="#4D49FF"/>
<path d="M34.6295 15.5183C34.6295 14.9066 34.1497 14.4106 33.558 14.4107L32.4154 14.4108C32.3508 14.026 32.255 13.6524 32.1276 13.2941L33.1156 12.7044C33.6279 12.3983 33.8035 11.7208 33.5075 11.191C33.2115 10.6613 32.5564 10.4795 32.0439 10.7857L31.053 11.3775C30.8138 11.0818 30.5496 10.8086 30.2636 10.5611L30.836 9.53672C31.132 9.00698 30.9565 8.32934 30.4441 8.02338C29.9318 7.71719 29.2765 7.89875 28.9804 8.42849L28.4099 9.44987C28.0634 9.31815 27.702 9.21901 27.3299 9.1521V7.97131C27.3299 7.35948 26.8502 6.86353 26.2584 6.86353C26.2558 6.86353 26.253 6.86397 26.2503 6.86397C26.2476 6.86397 26.2448 6.86353 26.2422 6.86353C25.6505 6.86353 25.1707 7.35948 25.1707 7.97131V9.15199C24.7986 9.2189 24.4372 9.31793 24.0907 9.44976L23.5202 8.42838C23.2241 7.89864 22.5688 7.71708 22.0565 8.02327C21.5441 8.32924 21.3686 9.00687 21.6646 9.53661L22.237 10.561C21.951 10.8085 21.6868 11.0817 21.4476 11.3773L20.4567 10.7856C19.9442 10.4794 19.2891 10.6612 18.9931 11.1909C18.6971 11.7206 18.8727 12.3982 19.385 12.7042L20.373 13.294C20.2456 13.6523 20.1498 14.0259 20.0852 14.4107L18.9426 14.4106C18.3509 14.4104 17.8711 14.9065 17.8711 15.5182C17.8711 16.1301 18.3509 16.626 18.9426 16.626L20.0852 16.6259C20.1497 17.0105 20.2456 17.3842 20.373 17.7424L19.385 18.3323C18.8727 18.6384 18.6971 19.3158 18.9931 19.8457C19.2891 20.3753 19.9442 20.5571 20.4567 20.2509L21.4476 19.6591C21.6868 19.9549 21.951 20.2281 22.237 20.4754L21.6646 21.4999C21.3686 22.0297 21.5441 22.7072 22.0565 23.0132C22.5688 23.3193 23.2241 23.1378 23.5202 22.6082L24.0907 21.5867C24.4372 21.7184 24.7986 21.8176 25.1707 21.8844V23.0651C25.1707 23.6769 25.6505 24.1729 26.2422 24.1729C26.2448 24.1729 26.2476 24.1725 26.2503 24.1725C26.253 24.1725 26.2558 24.1729 26.2584 24.1729C26.8502 24.1729 27.3299 23.6769 27.3299 23.0651V21.8844C27.702 21.8176 28.0634 21.7185 28.4099 21.5867L28.9804 22.6082C29.2765 23.1378 29.9318 23.3193 30.4441 23.0132C30.9565 22.7072 31.132 22.0297 30.836 21.4999L30.2636 20.4754C30.5496 20.2281 30.8138 19.9549 31.053 19.6591L32.0439 20.2509C32.5564 20.5571 33.2116 20.3753 33.5075 19.8457C33.8035 19.3158 33.6279 18.6384 33.1156 18.3323L32.1276 17.7424C32.255 17.3842 32.3508 17.0105 32.4154 16.6259L33.558 16.626C34.1497 16.6261 34.6295 16.1302 34.6295 15.5183ZM26.2583 19.766C26.2557 19.766 26.2529 19.7658 26.2502 19.7658C26.2475 19.7658 26.2447 19.766 26.2421 19.766C23.9769 19.766 22.1341 17.8606 22.1341 15.5183C22.1341 13.1762 23.9769 11.2707 26.2421 11.2707C26.2447 11.2707 26.2475 11.2709 26.2502 11.2709C26.2529 11.2709 26.2557 11.2707 26.2583 11.2707C28.5235 11.2707 30.3662 13.1762 30.3662 15.5183C30.3662 17.8605 28.5235 19.766 26.2583 19.766Z" fill="#4D49FF"/>
</svg>
