<svg width="65" height="69" viewBox="0 0 65 69" fill="none" xmlns="http://www.w3.org/2000/svg">
<circle cx="30" cy="39" r="30" fill="#49BEFF"/>
<circle cx="35" cy="34" r="30" fill="#4D49FF"/>
<path d="M30.7417 43H43.7417V46.96H24.2617V43.28L36.8217 32.04C37.7817 31.1867 38.4617 30.36 38.8617 29.56C39.2617 28.7333 39.4617 27.8933 39.4617 27.04C39.4617 25.4667 38.9551 24.16 37.9417 23.12C36.9551 22.08 35.6884 21.56 34.1417 21.56C33.1017 21.56 32.1551 21.8133 31.3017 22.32C30.4484 22.8267 29.7817 23.4933 29.3017 24.32C28.8484 25.1467 28.6351 26.04 28.6617 27H24.3417C24.3417 25.16 24.7551 23.5333 25.5817 22.12C26.4351 20.68 27.6084 19.5733 29.1017 18.8C30.6217 18 32.3284 17.6 34.2217 17.6C36.0084 17.6 37.6217 18.0133 39.0617 18.84C40.5284 19.64 41.6751 20.7733 42.5017 22.24C43.3284 23.68 43.7417 25.2933 43.7417 27.08C43.7417 28.36 43.5684 29.4667 43.2217 30.4C42.9017 31.3067 42.4217 32.1333 41.7817 32.88C41.1417 33.6267 40.2351 34.52 39.0617 35.56L30.7417 43Z" fill="white"/>
</svg>
