<svg width="80" height="74" viewBox="0 0 80 74" fill="none" xmlns="http://www.w3.org/2000/svg">
<circle cx="38" cy="37" r="30" fill="#49BEFF"/>
<circle cx="43" cy="32" r="30" fill="#4D49FF"/>
<path d="M43.9347 28.04C46.2547 28.3333 48.0947 29.32 49.4547 31C50.8414 32.6533 51.5347 34.68 51.5347 37.08C51.5347 38.8667 51.108 40.4933 50.2547 41.96C49.4014 43.4 48.2414 44.5333 46.7747 45.36C45.308 46.16 43.6947 46.56 41.9347 46.56C39.7747 46.56 37.8414 45.96 36.1347 44.76C34.428 43.5333 33.268 41.9067 32.6547 39.88L36.6947 38.76C37.068 39.96 37.7214 40.8933 38.6547 41.56C39.588 42.2267 40.6414 42.56 41.8147 42.56C43.4147 42.56 44.7214 42.0533 45.7347 41.04C46.748 40 47.2547 38.68 47.2547 37.08C47.2547 35.48 46.748 34.16 45.7347 33.12C44.748 32.08 43.468 31.56 41.8947 31.56C40.9614 31.56 40.0414 31.8 39.1347 32.28L37.1747 28.96L46.0547 21.16H33.7747V17.2H51.0947V21.2L43.9347 28.04Z" fill="white"/>
</svg>
