<svg width="32" height="51" viewBox="0 0 32 51" fill="none" xmlns="http://www.w3.org/2000/svg">
<path d="M24.7584 25.6547C24.7584 25.043 24.2786 24.547 23.6869 24.5471L22.5443 24.5472C22.4797 24.1624 22.3839 23.7888 22.2565 23.4305L23.2445 22.8408C23.7568 22.5347 23.9324 21.8572 23.6364 21.3274C23.3404 20.7977 22.6853 20.6159 22.1728 20.9221L21.1819 21.5139C20.9427 21.2182 20.6785 20.945 20.3925 20.6975L20.9649 19.6732C21.2609 19.1434 21.0854 18.4658 20.573 18.1598C20.0607 17.8537 19.4054 18.0352 19.1093 18.565L18.5388 19.5863C18.1923 19.4546 17.8309 19.3555 17.4588 19.2886V18.1078C17.4588 17.4959 16.9791 17 16.3873 17C16.3847 17 16.3819 17.0004 16.3792 17.0004C16.3765 17.0004 16.3737 17 16.3711 17C15.7794 17 15.2996 17.4959 15.2996 18.1078V19.2885C14.9275 19.3554 14.5661 19.4544 14.2196 19.5862L13.6491 18.5649C13.353 18.0351 12.6977 17.8535 12.1854 18.1597C11.673 18.4657 11.4975 19.1433 11.7935 19.6731L12.3659 20.6974C12.0799 20.9449 11.8157 21.2181 11.5765 21.5137L10.5856 20.922C10.0731 20.6158 9.418 20.7976 9.122 21.3273C8.826 21.857 9.0016 22.5346 9.5139 22.8406L10.5019 23.4304C10.3745 23.7887 10.2787 24.1623 10.2141 24.5471L9.0715 24.547C8.4798 24.5468 8 25.0429 8 25.6546C8 26.2665 8.4798 26.7624 9.0715 26.7624L10.2141 26.7623C10.2786 27.1469 10.3745 27.5206 10.5019 27.8788L9.5139 28.4687C9.0016 28.7748 8.826 29.4522 9.122 29.9821C9.418 30.5117 10.0731 30.6935 10.5856 30.3873L11.5765 29.7955C11.8157 30.0913 12.0799 30.3645 12.3659 30.6118L11.7935 31.6363C11.4975 32.1661 11.673 32.8436 12.1854 33.1496C12.6977 33.4557 13.353 33.2742 13.6491 32.7446L14.2196 31.7231C14.5661 31.8548 14.9275 31.954 15.2996 32.0208V33.2015C15.2996 33.8133 15.7794 34.3093 16.3711 34.3093C16.3737 34.3093 16.3765 34.3089 16.3792 34.3089C16.3819 34.3089 16.3847 34.3093 16.3873 34.3093C16.9791 34.3093 17.4588 33.8133 17.4588 33.2015V32.0208C17.8309 31.954 18.1923 31.8549 18.5388 31.7231L19.1093 32.7446C19.4054 33.2742 20.0607 33.4557 20.573 33.1496C21.0854 32.8436 21.2609 32.1661 20.9649 31.6363L20.3925 30.6118C20.6785 30.3645 20.9427 30.0913 21.1819 29.7955L22.1728 30.3873C22.6853 30.6935 23.3405 30.5117 23.6364 29.9821C23.9324 29.4522 23.7568 28.7748 23.2445 28.4687L22.2565 27.8788C22.3839 27.5206 22.4797 27.1469 22.5443 26.7623L23.6869 26.7624C24.2786 26.7625 24.7584 26.2666 24.7584 25.6547ZM16.3872 29.9024C16.3846 29.9024 16.3818 29.9022 16.3791 29.9022C16.3764 29.9022 16.3736 29.9024 16.371 29.9024C14.1058 29.9024 12.263 27.997 12.263 25.6547C12.263 23.3126 14.1058 21.4071 16.371 21.4071C16.3736 21.4071 16.3764 21.4073 16.3791 21.4073C16.3818 21.4073 16.3846 21.4071 16.3872 21.4071C18.6524 21.4071 20.4951 23.3126 20.4951 25.6547C20.4951 27.9969 18.6524 29.9024 16.3872 29.9024Z" fill="#4D49FF"/>
<rect x="1" y="1" width="30" height="49" rx="4" stroke="#4D49FF" stroke-width="2"/>
</svg>
