<svg width="45" height="50" viewBox="0 0 45 50" fill="none" xmlns="http://www.w3.org/2000/svg">
<path d="M16.6467 30.9248L17.7586 30.2611C18.2118 29.9905 18.3671 29.3913 18.1054 28.9227L15.9986 25.1499C15.8231 24.8356 15.5046 24.6598 15.1771 24.6598C15.0163 24.6598 14.8534 24.7021 14.7042 24.7913L13.5923 25.455C13.4396 25.546 13.2777 25.5876 13.1199 25.5876C12.6249 25.5876 12.1709 25.1784 12.1709 24.6065V23.2791C12.1709 22.738 11.7467 22.2993 11.2232 22.2993H7.00938C6.48607 22.2993 6.06167 22.7379 6.06167 23.2791V24.6065C6.06167 25.1784 5.60753 25.5876 5.11266 25.5876C4.95492 25.5876 4.79298 25.546 4.64026 25.455L3.52834 24.7913C3.37917 24.7022 3.2161 24.6599 3.05545 24.6598C2.72786 24.6598 2.40947 24.8356 2.23396 25.1499L0.127132 28.9227C-0.134524 29.3913 0.0207891 29.9905 0.47396 30.2611L1.58588 30.9248C2.21763 31.3019 2.21763 32.2446 1.58588 32.6218L0.47396 33.2854C0.0206274 33.556 -0.134524 34.1552 0.127132 34.6239L2.23396 38.3967C2.40947 38.711 2.72802 38.8867 3.05545 38.8867C3.21626 38.8867 3.37917 38.8443 3.52834 38.7552L4.64026 38.0915C4.79298 38.0005 4.95492 37.9589 5.11266 37.9589C5.60769 37.9589 6.06167 38.3681 6.06167 38.94V40.2674C6.06167 40.8085 6.48591 41.2473 7.00938 41.2473H11.223C11.7463 41.2473 12.1707 40.8086 12.1707 40.2674V38.94C12.1707 38.3681 12.6249 37.9589 13.1198 37.9589C13.2775 37.9589 13.4394 38.0005 13.5922 38.0915L14.7041 38.7552C14.8532 38.8443 15.0163 38.8867 15.177 38.8867C15.5046 38.8867 15.8229 38.711 15.9985 38.3967L18.1053 34.6239C18.3669 34.1552 18.2116 33.556 17.7585 33.2854L16.6465 32.6218C16.0149 32.2446 16.0149 31.3017 16.6467 30.9248ZM9.11637 34.68C7.56357 34.68 6.3049 33.3785 6.3049 31.7733C6.3049 30.1678 7.56373 28.8665 9.11637 28.8665C10.669 28.8665 11.9278 30.168 11.9278 31.7733C11.9278 33.3785 10.669 34.68 9.11637 34.68Z" fill="#4D49FF"/>
<path d="M15.9157 3.95334C15.4073 3.42799 14.5835 3.42799 14.0751 3.95334C13.5668 4.47901 13.5668 5.33086 14.0751 5.85637L16.4007 8.26068C7.85301 8.6983 0.933889 15.6399 0.18512 24.3863L0.377443 24.0417C0.927909 23.0559 1.95417 22.4435 3.05543 22.4436C3.0787 22.4436 3.10181 22.4458 3.12508 22.4465C4.59159 16.1435 9.90732 11.3764 16.3477 10.9623L14.0751 13.3118C13.5668 13.8373 13.5668 14.6893 14.0751 15.2148C14.3293 15.4775 14.6622 15.6088 14.9953 15.6088C15.3284 15.6088 15.6615 15.4775 15.9156 15.2148L20.4415 10.5355C20.6855 10.2831 20.8226 9.94076 20.8226 9.58406C20.8226 9.22715 20.6855 8.88494 20.4415 8.63263L15.9157 3.95334Z" fill="#4D49FF"/>
<path d="M32.3616 10.8374C35.2515 10.8374 37.6025 8.40665 37.6025 5.41879C37.6025 2.43076 35.2515 0 32.3616 0C29.4718 0 27.1207 2.43076 27.1207 5.41862C27.1207 8.40648 29.4718 10.8374 32.3616 10.8374Z" fill="#4D49FF"/>
<path d="M42.5711 25.4442V17.9952C42.5711 15.9333 41.2895 14.1048 39.3942 13.463L39.3855 13.46L36.6135 12.9854C36.3775 12.9104 36.1254 13.0396 36.0405 13.2802L32.8952 22.2028C32.7137 22.7176 32.0095 22.7176 31.8282 22.2028L28.6828 13.2802C28.6143 13.0859 28.4368 12.9641 28.2467 12.9641C28.2017 12.9641 25.3378 13.4593 25.3378 13.4593C23.427 14.1177 22.1503 15.949 22.1503 18.0199V25.4442C22.1503 26.5569 23.0227 27.4587 24.0987 27.4587H40.6225C41.6989 27.4587 42.5711 26.5567 42.5711 25.4442Z" fill="#4D49FF"/>
<path d="M44.8873 27.2251C44.7785 28.7649 43.5567 29.7078 42.0671 29.8195C40.9257 36.5742 35.4074 41.7901 28.6563 42.224L30.9288 39.8745C31.4371 39.3488 31.4371 38.497 30.9288 37.9715C30.4204 37.4461 29.5966 37.4461 29.0882 37.9715L24.5624 42.6508C24.0541 43.1765 24.0541 44.0283 24.5624 44.5538L29.0882 49.233C29.3424 49.4957 29.6753 49.627 30.0084 49.627C30.3415 49.627 30.6746 49.4957 30.9286 49.233C31.4369 48.7075 31.4369 47.8555 30.9286 47.3299L28.6032 44.9256C37.6582 44.4621 44.8873 36.7001 44.8873 27.2251Z" fill="#4D49FF"/>
<path d="M33.5039 12.8839C33.3832 12.7479 33.2066 12.6794 33.0278 12.6794H31.6953C31.5167 12.6794 31.34 12.7479 31.2191 12.8839C31.0321 13.0946 31.005 13.3989 31.1377 13.6366L31.8499 14.7468L31.5165 17.655L32.1732 19.4609C32.2372 19.6425 32.4856 19.6425 32.5497 19.4609L33.2064 17.655L32.873 14.7468L33.5852 13.6366C33.7181 13.3989 33.6909 13.0946 33.5039 12.8839Z" fill="#4D49FF"/>
</svg>
