<svg width="51" height="50" viewBox="0 0 51 50" fill="none" xmlns="http://www.w3.org/2000/svg">
<path d="M22.1184 27.0677C23.962 25.7772 26.6212 23.4921 29.7933 20.4829C29.2207 20.1251 28.6131 19.6694 28.0404 19.088C27.4122 18.4767 26.9055 17.8294 26.5285 17.2097C23.7786 20.583 21.7147 23.4069 20.5344 25.3662C20.1533 25.3662 16.8453 25.428 14.5403 27.9132C12.0953 30.5583 12.2334 36.9684 12.2334 36.9684C12.2334 36.9684 13.8008 34.4554 16.732 33.7442C20.1287 32.9328 21.6632 30.7116 22.1184 27.0677Z" fill="#4D49FF"/>
<path d="M18.7217 43.0483L18.9544 43.2719L27.4142 38.7273L22.9134 34.2551L18.7217 43.0483Z" fill="#4D49FF"/>
<path d="M41.6145 14.0855L39.0191 16.8839V11.087C39.5361 10.5461 39.8596 10.2074 39.8596 10.2074C39.8596 10.2074 47.8866 1.82084 45.6291 0.217197C43.3674 -1.38219 35.9789 6.37614 35.9789 6.37614C35.9789 6.37614 34.708 7.79022 33.0725 9.63021H0V49.627H39.0191V26.2224L46.1193 18.5621L41.6145 14.0855ZM35.8059 46.2984C33.0148 46.2984 6.0106 46.2984 3.21538 46.2984C3.21538 43.4148 3.21538 15.8382 3.21538 12.9525C5.32879 12.9525 21.282 12.9525 30.1434 12.9525C28.9302 14.339 27.7829 15.6699 27.0042 16.6219C27.3832 17.2565 27.9064 17.9189 28.5409 18.5535C29.128 19.1306 29.7438 19.614 30.3268 19.9654C31.6801 18.6599 33.8676 16.4259 35.8059 14.4241C35.8059 15.7892 35.8059 17.8805 35.8059 20.353L23.8342 33.2672L28.339 37.7415L35.8059 29.6894C35.8059 37.2836 35.8059 44.8609 35.8059 46.2984Z" fill="#4D49FF"/>
<path d="M50.6572 12.1157L47.6437 9.14072C47.2399 8.72973 46.4449 8.87456 45.9093 9.46227L42.5085 13.121L47.0174 17.5994L50.4121 13.928C50.9641 13.3424 51.0671 12.5182 50.6572 12.1157Z" fill="#4D49FF"/>
</svg>
