<svg width="241" height="242" viewBox="0 0 241 242" fill="none" xmlns="http://www.w3.org/2000/svg">
<rect x="4" y="1" width="237" height="237" rx="5" fill="white"/>
<rect x="4.5" y="1.5" width="236" height="236" rx="4.5" stroke="#04172A" stroke-opacity="0.1"/>
<g clip-path="url(#clip0)">
<path d="M175 120.706C175 117.137 174.708 113.549 174.084 110.038H124.043V130.255H152.699C151.51 136.775 147.689 142.543 142.094 146.208V159.326H159.191C169.23 150.182 175 136.678 175 120.706Z" fill="#4285F4"/>
<path d="M124.042 172C138.351 172 150.417 167.351 159.209 159.326L142.113 146.208C137.356 149.41 131.216 151.224 124.061 151.224C110.221 151.224 98.4855 141.983 94.2748 129.56H76.6328V143.083C85.639 160.811 103.983 172 124.042 172V172Z" fill="#34A853"/>
<path d="M94.2562 129.56C92.0339 123.04 92.0339 115.979 94.2562 109.459V95.9362H76.6337C69.1091 110.771 69.1091 128.248 76.6337 143.083L94.2562 129.56V129.56Z" fill="#FBBC04"/>
<path d="M124.042 87.7762C131.606 87.6605 138.916 90.4769 144.394 95.6469L159.54 80.6579C149.949 71.7455 137.22 66.8457 124.042 67C103.983 67 85.639 78.1887 76.6328 95.9363L94.2553 109.459C98.4465 97.0165 110.201 87.7762 124.042 87.7762V87.7762Z" fill="#EA4335"/>
</g>
<defs>
<clipPath id="clip0">
<rect width="104" height="105" fill="white" transform="translate(71 67)"/>
</clipPath>
</defs>
</svg>
