<svg width="21" height="26" viewBox="0 0 21 26" fill="none" xmlns="http://www.w3.org/2000/svg">
<path d="M20.5664 20.691C20.4884 20.6414 19.9013 20.2384 19.3134 19.0194C18.2337 16.7809 18.0071 13.6275 18.0071 11.3763C18.0071 11.3665 18.0069 11.3568 18.0065 11.347C17.9948 8.3718 16.1762 5.80704 13.5739 4.65629V2.89636C13.5739 1.29929 12.2498 0 10.6223 0H10.3777C8.75017 0 7.4261 1.29929 7.4261 2.89636V4.65618C4.81506 5.81064 2.9929 8.3885 2.9929 11.3763C2.9929 13.6275 2.76628 16.7808 1.6866 19.0194C1.09874 20.2384 0.511605 20.6413 0.433541 20.691C0.104803 20.84 -0.0572854 21.1843 0.018342 21.5332C0.094695 21.8856 0.430898 22.1285 0.798046 22.1285H6.49716C6.52898 24.2685 8.3118 26 10.5 26C12.6882 26 14.4711 24.2685 14.5029 22.1285H20.202C20.5691 22.1285 20.9053 21.8856 20.9817 21.5332C21.0572 21.1843 20.8952 20.84 20.5664 20.691ZM8.9812 2.89636C8.9812 2.14068 9.60768 1.52593 10.3777 1.52593H10.6223C11.3924 1.52593 12.0189 2.14068 12.0189 2.89636V4.16168C11.5281 4.0623 11.0201 4.00999 10.4998 4.00999C9.9797 4.00999 9.47182 4.06225 8.98125 4.16152V2.89636H8.9812ZM10.5 24.4741C9.16926 24.4741 8.08378 23.4271 8.05221 22.1286H12.9478C12.9163 23.4271 11.8308 24.4741 10.5 24.4741ZM13.6309 20.6026C13.6307 20.6026 2.57003 20.6026 2.57003 20.6026C2.70454 20.3972 2.84144 20.1647 2.9775 19.9019C4.0196 17.8888 4.548 15.0203 4.548 11.3763C4.548 8.15587 7.21798 5.53592 10.4998 5.53592C13.7815 5.53592 16.4515 8.15588 16.4515 11.3788C16.4515 11.3882 16.4517 11.3975 16.452 11.4069C16.455 15.0363 16.9833 17.8944 18.0225 19.9019C18.1586 20.1647 18.2955 20.3972 18.43 20.6026H13.6309Z" fill="#04172A"/>
</svg>
