<svg width="15" height="15" viewBox="0 0 15 15" fill="none" xmlns="http://www.w3.org/2000/svg">
<path d="M7.38311 10.2646C7.39699 10.2824 7.41473 10.2967 7.43498 10.3066C7.45524 10.3165 7.47747 10.3216 7.5 10.3216C7.52253 10.3216 7.54476 10.3165 7.56501 10.3066C7.58527 10.2967 7.60301 10.2824 7.61689 10.2646L9.69502 7.63545C9.77109 7.53896 9.70244 7.39609 9.57812 7.39609H8.20322V1.11719C8.20322 1.03555 8.13643 0.96875 8.05479 0.96875H6.9415C6.85986 0.96875 6.79307 1.03555 6.79307 1.11719V7.39424H5.42188C5.29756 7.39424 5.22891 7.53711 5.30498 7.63359L7.38311 10.2646ZM14.291 9.61523H13.1777C13.0961 9.61523 13.0293 9.68203 13.0293 9.76367V12.6211H1.9707V9.76367C1.9707 9.68203 1.90391 9.61523 1.82227 9.61523H0.708984C0.627344 9.61523 0.560547 9.68203 0.560547 9.76367V13.4375C0.560547 13.7659 0.825879 14.0312 1.1543 14.0312H13.8457C14.1741 14.0312 14.4395 13.7659 14.4395 13.4375V9.76367C14.4395 9.68203 14.3727 9.61523 14.291 9.61523Z" fill="black"/>
</svg>
