<svg width="18" height="18" viewBox="0 0 18 18" fill="none" xmlns="http://www.w3.org/2000/svg">
<path fill-rule="evenodd" clip-rule="evenodd" d="M8.5575 0.432519C8.61556 0.374315 8.68453 0.328136 8.76046 0.296628C8.83639 0.26512 8.91779 0.248901 9 0.248901C9.08221 0.248901 9.16361 0.26512 9.23954 0.296628C9.31547 0.328136 9.38444 0.374315 9.4425 0.432519L16.9425 7.93252C17.0005 7.99067 17.0465 8.05968 17.0778 8.1356C17.1091 8.21153 17.1251 8.29289 17.125 8.37502V17.125C17.125 17.2908 17.0592 17.4497 16.9419 17.567C16.8247 17.6842 16.6658 17.75 16.5 17.75H10.875C10.7092 17.75 10.5503 17.6842 10.4331 17.567C10.3158 17.4497 10.25 17.2908 10.25 17.125V12.125H7.75V17.125C7.75 17.2908 7.68415 17.4497 7.56694 17.567C7.44973 17.6842 7.29076 17.75 7.125 17.75H1.5C1.33424 17.75 1.17527 17.6842 1.05806 17.567C0.940849 17.4497 0.875001 17.2908 0.875001 17.125V8.37502C0.874854 8.29289 0.890897 8.21153 0.922211 8.1356C0.953526 8.05968 0.999499 7.99067 1.0575 7.93252L8.5575 0.432519ZM2.125 8.63377V16.5H6.5V11.5C6.5 11.3343 6.56585 11.1753 6.68306 11.0581C6.80027 10.9409 6.95924 10.875 7.125 10.875H10.875C11.0408 10.875 11.1997 10.9409 11.3169 11.0581C11.4342 11.1753 11.5 11.3343 11.5 11.5V16.5H15.875V8.63377L9 1.75877L2.125 8.63377Z" fill="#2D2D2D"/>
</svg>
