<svg width="22" height="20" viewBox="0 0 22 20" fill="none" xmlns="http://www.w3.org/2000/svg">
<path d="M21.1475 3.6125C21.0335 3.54667 20.9042 3.51202 20.7725 3.51202C20.6408 3.51202 20.5115 3.54667 20.3975 3.6125L14 6.785V4.25C13.9996 4.12215 13.9666 3.99653 13.904 3.88505C13.8414 3.77357 13.7513 3.67995 13.6423 3.61307C13.5334 3.54619 13.4091 3.50828 13.2814 3.50293C13.1537 3.49758 13.0267 3.52497 12.9125 3.5825L6.5 6.785V1.25C6.5 1.05109 6.42098 0.860322 6.28033 0.71967C6.13968 0.579018 5.94891 0.5 5.75 0.5H1.25C1.05109 0.5 0.860322 0.579018 0.71967 0.71967C0.579018 0.860322 0.5 1.05109 0.5 1.25V20H21.5V4.25C21.5003 4.12254 21.468 3.99712 21.4063 3.88558C21.3447 3.77404 21.2556 3.68005 21.1475 3.6125ZM15.5 18.5H12.5V13.25H15.5V18.5ZM20 18.5H17V12.5C17 12.3011 16.921 12.1103 16.7803 11.9697C16.6397 11.829 16.4489 11.75 16.25 11.75H11.75C11.5511 11.75 11.3603 11.829 11.2197 11.9697C11.079 12.1103 11 12.3011 11 12.5V18.5H2V2H5V9.215L12.5 5.465V9.215L20 5.465V18.5Z" fill="#2D2D2D"/>
</svg>
