<svg width="13" height="13" viewBox="0 0 13 13" fill="none" xmlns="http://www.w3.org/2000/svg">
<path d="M12.805 11.895L9.88 8.96999C10.595 8.06 11.05 6.82499 11.05 5.525C11.05 2.47001 8.58001 0 5.525 0C2.46999 0 0 2.46999 0 5.525C0 8.57999 2.46999 11.05 5.525 11.05C6.82499 11.05 7.99499 10.595 8.96999 9.88L11.895 12.805C12.025 12.935 12.22 13 12.35 13C12.48 13 12.675 12.935 12.805 12.805C13.065 12.545 13.065 12.155 12.805 11.895V11.895ZM1.30001 5.525C1.30001 3.185 3.185 1.30001 5.525 1.30001C7.865 1.30001 9.74999 3.185 9.74999 5.525C9.74999 6.695 9.29498 7.735 8.51499 8.515C7.73499 9.295 6.69498 9.75001 5.52498 9.75001C3.18499 9.75001 1.29999 7.86501 1.29999 5.52501L1.30001 5.525Z" fill="#04172A" fill-opacity="0.3"/>
</svg>
