<svg width="30" height="30" viewBox="0 0 30 30" fill="none" xmlns="http://www.w3.org/2000/svg">
<path d="M29.7083 12.0623H28.5V12H15V18H23.4773C22.2405 21.4928 18.9173 24 15 24C10.0298 24 6 19.9703 6 15C6 10.0298 10.0298 6 15 6C17.2943 6 19.3815 6.8655 20.9708 8.27925L25.2135 4.0365C22.5345 1.53975 18.951 0 15 0C6.71625 0 0 6.71625 0 15C0 23.2838 6.71625 30 15 30C23.2838 30 30 23.2838 30 15C30 13.9943 29.8965 13.0125 29.7083 12.0623Z" fill="#FFC107"/>
<path d="M1.72949 8.01825L6.65774 11.6325C7.99124 8.331 11.2207 6 15 6C17.2942 6 19.3815 6.8655 20.9707 8.27925L25.2135 4.0365C22.5345 1.53975 18.951 0 15 0C9.23849 0 4.24199 3.25275 1.72949 8.01825Z" fill="#FF3D00"/>
<path d="M15.0002 29.9595C18.8747 29.9595 22.3952 28.4767 25.057 26.0655L20.4145 22.137C18.8579 23.3208 16.9558 23.961 15.0002 23.9595C11.0987 23.9595 7.78598 21.4718 6.53798 18L1.64648 21.7687C4.12898 26.6265 9.17048 29.9595 15.0002 29.9595Z" fill="#4CAF50"/>
<path d="M29.7083 12.0623H28.5V12H15V18H23.4773C22.8857 19.6623 21.82 21.1149 20.412 22.1783L20.4143 22.1768L25.0568 26.1053C24.7283 26.4038 30 22.5 30 15C30 13.9943 29.8965 13.0125 29.7083 12.0623Z" fill="#1976D2"/>
</svg>
